{"title":"Edge of Tomorrow 2014","uid":10753402,"size":1817471802,"categoryP":"video","categoryS":"movies","magnet":"?xt=urn:btih:5ebd7982d4ec15d23aa2696a83b4e2b117422967&amp;dn=Edge+of+Tomorrow+2014&amp;tr=udp%3A%2F%2Ftracker.openbittorrent.com%3A80&amp;tr=udp%3A%2F%2Fopen.demonii.com%3A1337&amp;tr=udp%3A%2F%2Ftracker.coppersurfer.tk%3A6969&amp;tr=udp%3A%2F%2Fexodus.desync.com%3A6969","seeders":6,"leechers":0,"uploader":"buldogpl","files":-1,"time":1407898440,"description":"&quot;Edge of Tomorrow&quot; (2014)\n\nPLOT: \nAn officer finds himself caught in a time loop in a war with an alien race. His skills increase as he faces the same brutal combat scenarios, and his union with a Special Forces warrior gets him closer and closer to defeating the enemy.\n\nACTORS: \nTom Cruise, Emily Blunt, Bill Paxton, Brendan Gleeson\n\n----------------------------\nAUDIO..........- English\nRUNTiME........- 1h 47m 52s\nRESOLUTiON.....- 720 x 304\nFRAMERATE......- 25.000 fps\n\n----------------------------\n &lt;a href=&quot;\nhttp://bayimg.com/mAplhaAFM&quot; rel=&quot;nofollow&quot; target=&quot;_NEW&quot;&gt;\nhttp://bayimg.com/mAplhaAFM&lt;/a&gt; &lt;a href=&quot;\nhttp://bayimg.com/maplJaAFM&quot; rel=&quot;nofollow&quot; target=&quot;_NEW&quot;&gt;\nhttp://bayimg.com/maplJaAFM&lt;/a&gt; &lt;a href=&quot;\nhttp://bayimg.com/MaPLKaafM&quot; rel=&quot;nofollow&quot; target=&quot;_NEW&quot;&gt;\nhttp://bayimg.com/MaPLKaafM&lt;/a&gt; &lt;a href=&quot;\nhttp://bayimg.com/MAplLaAFM&quot; rel=&quot;nofollow&quot; target=&quot;_NEW&quot;&gt;\nhttp://bayimg.com/MAplLaAFM&lt;/a&gt; &lt;a href=&quot;\nhttp://bayimg.com/MAPlmaAfM&quot; rel=&quot;nofollow&quot; target=&quot;_NEW&quot;&gt;\nhttp://bayimg.com/MAPlmaAfM&lt;/a&gt;\n\n----------------------------\n\nI've just found a realy good Chinese source and attached the English audio.\nAnd just wanted to share :)\nEnjoy!\n\n---------------------------------------------------------------\n\nGeneral\nComplete name                  : Edge.Of.Tomorrow.2014.myrip.mp4\nFormat                         : MPEG-4\nFormat profile                 : Base Media\nCodec ID                       : isom\nFile size                      : 1.64 GiB\nDuration                       : 1h 47mn\nOverall bit rate mode          : Variable\nOverall bit rate               : 2 175 Kbps\nEncoded date                   : UTC 2014-08-12 22:10:49\nTagged date                    : UTC 2014-08-12 22:10:49\nWriting application            : Lavf51.12.1\n\nVideo\nID                             : 1\nFormat                         : AVC\nFormat/Info                    : Advanced Video Codec\nFormat profile                 : &lt;a class=&quot;__cf_email__&quot; href=&quot;/cdn-cgi/l/email-protection&quot; data-cfemail=&quot;9ddffceef8f1f4f3f8ddd1aeb3ad&quot;&gt;[email&amp;#160;protected]&lt;/a&gt;&lt;script cf-hash='f9e31' type=&quot;text/javascript&quot;&gt;\n/* &lt;![CDATA[ */!function(){try{var t=&quot;currentScript&quot;in document?document.currentScript:function(){for(var t=document.getElementsByTagName(&quot;script&quot;),e=t.length;e--;)if(t[e].getAttribute(&quot;cf-hash&quot;))return t[e]}();if(t&amp;&amp;t.previousSibling){var e,r,n,i,c=t.previousSibling,a=c.getAttribute(&quot;data-cfemail&quot;);if(a){for(e=&quot;&quot;,r=parseInt(a.substr(0,2),16),n=2;a.length-n;n+=2)i=parseInt(a.substr(n,2),16)^r,e+=String.fromCharCode(i);e=document.createTextNode(e),c.parentNode.replaceChild(e,c)}}}catch(u){}}();/* ]]&gt; */&lt;/script&gt;\nFormat settings, CABAC         : No\nFormat settings, ReFrames      : 1 frame\nCodec ID                       : avc1\nCodec ID/Info                  : Advanced Video Coding\nDuration                       : 1h 47mn\nBit rate mode                  : Variable\nBit rate                       : 2 021 Kbps\nMaximum bit rate               : 2 907 Kbps\nWidth                          : 720 pixels\nHeight                         : 304 pixels\nDisplay aspect ratio           : 2.35:1\nFrame rate mode                : Constant\nFrame rate                     : 25.000 fps\nOriginal frame rate            : 24.000 fps\nColor space                    : YUV\nChroma subsampling             : 4:2:0\nBit depth                      : 8 bits\nScan type                      : Progressive\nBits/(Pixel*Frame)             : 0.369\nStream size                    : 1.52 GiB (93%)\nEncoded date                   : UTC 2014-08-12 22:10:49\nTagged date                    : UTC 2014-08-12 22:10:49\n\nAudio\nID                             : 2\nFormat                         : AAC\nFormat/Info                    : Advanced Audio Codec\nFormat profile                 : LC\nCodec ID                       : 40\nDuration                       : 1h 47mn\nBit rate mode                  : Variable\nBit rate                       : 151 Kbps\nChannel(s)                     : 2 channels\nChannel positions              : Front: L R\nSampling rate                  : 44.1 KHz\nCompression mode               : Lossy\nStream size                    : 116 MiB (7%)\nEncoded date                   : UTC 2014-08-12 22:10:49\nTagged date                    : UTC 2014-08-12 22:10:49\n\n","torrent":{"xt":"urn:btih:5ebd7982d4ec15d23aa2696a83b4e2b117422967","amp;dn":"Edge+of+Tomorrow+2014","amp;tr":["udp%3A%2F%2Ftracker.openbittorrent.com%3A80","udp%3A%2F%2Fopen.demonii.com%3A1337","udp%3A%2F%2Ftracker.coppersurfer.tk%3A6969","udp%3A%2F%2Fexodus.desync.com%3A6969"],"infoHash":"5ebd7982d4ec15d23aa2696a83b4e2b117422967","infoHashBuffer":{"type":"Buffer","data":[94,189,121,130,212,236,21,210,58,162,105,106,131,180,226,177,23,66,41,103]},"announce":[],"urlList":[]}}